<?xml version="1.0" encoding="utf-8"?>
<!-- Generator: Adobe Illustrator 15.0.0, SVG Export Plug-In . SVG Version: 6.00 Build 0)  -->
<!DOCTYPE svg PUBLIC "-//W3C//DTD SVG 1.1//EN" "http://www.w3.org/Graphics/SVG/1.1/DTD/svg11.dtd">
<svg version="1.1" id="Layer_1" xmlns="http://www.w3.org/2000/svg" xmlns:xlink="http://www.w3.org/1999/xlink" x="0px" y="0px"
	 width="1080px" height="1080px" viewBox="0 0 1080 1080" enable-background="new 0 0 1080 1080" xml:space="preserve">
<path fill="#B5B5B5" d="M384.58,660.252h132.73v-97.562H370.967C372.101,596.723,376.638,629.621,384.58,660.252z"/>
<path fill="#B5B5B5" d="M370.967,511.638h146.344v-97.562H384.58C376.638,443.571,372.101,476.471,370.967,511.638z"/>
<path fill="#B5B5B5" d="M517.311,848.572V705.63H397.06C424.286,780.504,467.395,833.823,517.311,848.572z"/>
<path fill="#B5B5B5" d="M276.807,705.63c31.765,49.916,77.144,89.622,130.463,115.714c-23.825-31.764-43.109-70.336-57.858-115.714H276.807z"/>
<path fill="#B5B5B5" d="M324.454,511.638c1.134-34.033,5.672-66.932,12.479-97.562h-85.084c-12.479,30.63-21.555,63.529-23.823,97.562l0,0H324.454z
	"/>
<path fill="#B5B5B5" d="M324.454,562.689h-96.429l0,0c2.269,34.033,11.345,66.932,23.824,97.562h85.084
	C330.126,629.621,326.723,596.723,324.454,562.689z"/>
<path fill="#B5B5B5" d="M407.27,251.849c-53.319,24.958-98.698,65.798-130.463,115.714h72.605C364.16,322.185,383.445,283.613,407.27,251.849z"/>
<path fill="#B5B5B5" d="M397.06,367.563h119.117V224.622C466.261,239.37,424.286,292.689,397.06,367.563z"/>
<path fill="#B5B5B5" d="M747.605,660.252h85.084c12.479-30.631,21.554-63.529,23.823-97.562h-96.429
	C758.95,596.723,754.412,629.621,747.605,660.252z"/>
<path fill="#B5B5B5" d="M760.084,511.638h96.429c-2.27-34.033-11.345-66.932-23.823-97.562h-85.084C754.412,444.706,758.95,476.471,760.084,511.638
	z"/>
<path fill="#B5B5B5" d="M678.403,251.849c23.823,31.765,43.109,70.336,57.857,115.714h72.605C777.101,317.647,731.723,276.807,678.403,251.849z"/>
<path fill="#B5B5B5" d="M568.361,224.622v142.941h120.252C662.521,291.555,619.412,238.235,568.361,224.622z"/>
<path fill="#B5B5B5" d="M540,0C241.639,0,0,241.639,0,540s241.639,540,540,540s540-241.639,540-540S838.361,0,540,0z M542.27,899.621
	c-200.799,0-363.026-162.227-363.026-363.024c0-193.992,153.151-352.815,344.874-361.891c5.673,0,12.479,0,18.152,0
	c5.671,0,12.479,0,18.15,0c191.723,9.076,344.874,167.899,344.874,361.891C905.294,737.395,743.067,899.621,542.27,899.621z"/>
<path fill="#B5B5B5" d="M702.227,412.941H568.361v97.562H715.84C713.572,476.471,709.033,443.571,702.227,412.941z"/>
<path fill="#B5B5B5" d="M715.84,562.689H568.361v97.562h133.865C709.033,629.621,713.572,596.723,715.84,562.689z"/>
<path fill="#B5B5B5" d="M678.403,821.344c53.319-24.957,98.697-65.798,130.463-115.714h-72.605C721.513,751.008,702.227,790.714,678.403,821.344z"
	/>
<path fill="#B5B5B5" d="M568.361,705.63v142.942c51.051-13.613,94.159-66.934,120.252-142.942H568.361z"/>
</svg>
